<!DOCTYPE svg PUBLIC "-//W3C//DTD SVG 20010904//EN" "http://www.w3.org/TR/2001/REC-SVG-20010904/DTD/svg10.dtd">
<svg version="1.0" xmlns="http://www.w3.org/2000/svg" width="160px" height="160px" viewBox="0 0 1600 1600" preserveAspectRatio="xMidYMid meet">
<g id="layer101" fill="#04d1e6" stroke="none">
 <path d="M493 1206 c-150 -200 -275 -370 -279 -380 -3 -9 -2 -16 4 -16 8 0 733 270 865 322 15 6 27 16 26 22 0 14 -320 409 -334 412 -5 2 -133 -160 -282 -360z"/>
 <path d="M1141 1056 c-7 -8 -67 -50 -134 -92 -67 -43 -128 -82 -135 -89 -10 -9 25 -39 155 -139 92 -71 172 -130 179 -133 6 -2 37 31 69 74 32 43 69 90 83 106 l26 27 -35 38 c-20 20 -69 78 -109 127 -40 50 -76 91 -80 93 -4 1 -13 -4 -19 -12z"/>
 <path d="M645 805 c-16 -8 -108 -42 -202 -76 -95 -35 -173 -67 -173 -71 0 -5 113 -146 252 -315 l251 -306 20 24 c10 13 80 100 155 192 76 93 138 172 140 176 3 9 -393 391 -405 390 -4 0 -21 -7 -38 -14z"/>
 </g>

</svg>