<!DOCTYPE svg PUBLIC "-//W3C//DTD SVG 20010904//EN" "http://www.w3.org/TR/2001/REC-SVG-20010904/DTD/svg10.dtd">
<svg version="1.0" xmlns="http://www.w3.org/2000/svg" width="463px" height="103px" viewBox="0 0 4630 1030" preserveAspectRatio="xMidYMid meet">
<g fill="#ffffff"  fill-opacity="0" stroke="#ffffff" stroke-width="20">
 <path d="M280 603 c-89 -224 -172 -427 -185 -449 -14 -23 -40 -55 -60 -73 l-36 -31 198 1 c125 0 190 4 176 9 -28 12 -46 45 -38 73 11 37 207 531 215 540 9 10 210 -524 210 -557 0 -23 -22 -48 -50 -59 -8 -3 64 -6 160 -6 171 -1 174 0 148 17 -63 41 -70 56 -259 537 l-157 400 -80 3 -80 3 -162 -408z"/>
 <path d="M1083 1009 c-67 -26 -137 -94 -171 -167 -24 -50 -27 -70 -27 -157 0 -88 3 -107 27 -157 37 -80 71 -122 131 -161 70 -46 130 -61 225 -55 134 8 239 74 294 186 20 41 23 62 23 162 0 104 -3 121 -27 172 -32 68 -96 133 -164 168 -70 35 -234 40 -311 9z m237 -138 c75 -55 96 -213 43 -320 -46 -92 -127 -126 -204 -85 -68 35 -101 187 -64 295 41 119 145 170 225 110z"/>
 <path d="M1695 988 c41 -37 47 -103 43 -472 -4 -367 -5 -375 -67 -398 l-36 -14 140 -49 c76 -28 143 -51 147 -53 4 -2 9 207 10 465 3 498 4 508 52 531 15 8 -24 11 -147 11 l-168 1 26 -22z"/>
 <path d="M2069 994 c44 -32 51 -68 51 -287 0 -252 -10 -287 -81 -287 -38 0 -14 -12 129 -66 l137 -51 5 311 c6 325 10 351 52 380 21 15 11 16 -147 16 -160 0 -168 -1 -146 -16z"/>
 <path d="M2124 206 c-26 -26 -34 -42 -34 -71 0 -75 40 -114 118 -115 46 0 58 4 83 29 24 24 29 38 29 76 0 40 -5 52 -34 81 -29 29 -41 34 -81 34 -40 0 -52 -5 -81 -34z"/>
 <path d="M2476 1000 c12 -4 29 -27 38 -49 14 -36 16 -92 16 -416 0 -411 -4 -440 -59 -470 -23 -13 6 -15 274 -12 l300 2 50 28 c103 59 146 160 113 268 -13 47 -68 113 -110 135 l-30 16 48 23 c115 54 167 166 139 295 -17 79 -96 155 -185 180 -43 12 -624 12 -594 0z m501 -150 c62 -37 79 -109 44 -186 -26 -58 -66 -74 -180 -74 l-91 0 0 140 0 140 98 0 c79 0 103 -4 129 -20z m-64 -411 c51 -14 77 -57 77 -127 0 -48 -4 -58 -34 -88 -33 -33 -36 -34 -120 -34 l-86 0 0 130 0 130 63 0 c34 0 79 -5 100 -11z"/>
 <path d="M3604 1019 c-49 -14 -125 -69 -161 -117 -70 -93 -85 -269 -31 -384 35 -76 98 -142 167 -175 50 -25 67 -28 156 -28 123 0 179 19 248 84 55 51 74 83 93 156 51 189 -43 391 -210 454 -61 23 -200 28 -262 10z m219 -158 c51 -46 61 -78 61 -176 0 -73 -4 -98 -21 -130 -41 -78 -81 -105 -152 -105 -47 0 -84 27 -113 83 -30 57 -30 181 -1 247 50 111 154 149 226 81z"/>
 <path d="M4310 1007 c-70 -46 -75 -66 -78 -319 l-4 -227 -48 -3 -49 -3 141 -160 c78 -88 145 -162 150 -163 4 -2 8 42 8 97 l0 101 90 0 90 0 0 65 0 65 -90 0 -90 0 0 190 c0 189 0 191 25 215 13 14 31 25 40 25 25 0 88 -29 114 -53 l24 -22 -8 40 c-13 71 -54 133 -107 161 -16 8 -57 14 -101 14 -60 0 -80 -4 -107 -23z"/>
 </g>
</svg> 