<!DOCTYPE svg PUBLIC "-//W3C//DTD SVG 20010904//EN" "http://www.w3.org/TR/2001/REC-SVG-20010904/DTD/svg10.dtd">
<svg version="1.0" xmlns="http://www.w3.org/2000/svg" width="80px" height="80px" viewBox="0 0 800 800" preserveAspectRatio="xMidYMid meet">
<g id="layer101" fill="#ffffff" stroke="none">
 <path d="M362 667 c-26 -24 -65 -49 -89 -55 -35 -11 -43 -18 -54 -50 -20 -62 -64 -143 -118 -217 -28 -38 -51 -72 -51 -75 0 -3 25 -18 55 -34 30 -16 85 -58 121 -94 l65 -65 70 48 69 47 51 -37 51 -36 93 61 93 62 -14 34 c-18 43 -8 88 32 146 l27 39 -24 24 c-13 13 -47 37 -75 52 -30 16 -69 50 -93 81 -47 59 -114 112 -143 112 -10 0 -40 -19 -66 -43z m112 -37 c23 -8 91 -88 83 -96 -2 -2 -47 10 -101 27 -85 26 -96 32 -85 46 25 30 63 38 103 23z m-123 -81 c19 -10 19 -11 -6 -40 -20 -24 -25 -41 -25 -82 l1 -52 15 35 c19 44 82 110 105 110 23 0 34 -17 21 -33 -15 -18 -24 -74 -17 -98 6 -19 9 -18 25 17 9 22 27 48 39 58 18 16 25 17 47 7 19 -8 24 -16 19 -29 -4 -9 -9 -33 -12 -52 l-5 -35 21 31 c11 17 32 37 46 44 22 12 28 12 40 -1 13 -13 12 -21 -6 -69 -12 -32 -18 -66 -15 -82 4 -23 -1 -32 -35 -58 l-39 -32 -21 26 c-19 25 -21 25 -53 9 -32 -15 -35 -15 -65 6 -34 24 -36 24 -100 -27 l-44 -36 -20 30 c-29 40 -89 100 -106 105 -10 4 -1 23 34 69 26 36 58 86 71 111 22 44 49 79 60 79 3 0 14 -5 25 -11z"/>
 </g>

</svg>